<svg width="29" height="24" viewBox="0 0 29 24" fill="none" xmlns="http://www.w3.org/2000/svg">
<path d="M26.9476 0H22.261V3.5H19.9178V0H15.2312V3.5H12.888V0H8.20144V3.5H5.85817V0H1.17163C0.860897 0 0.562888 0.122916 0.343164 0.341709C0.12344 0.560501 0 0.857247 0 1.16667L0 22.1667C0 22.4761 0.12344 22.7728 0.343164 22.9916C0.562888 23.2104 0.860897 23.3333 1.17163 23.3333H26.9476C27.2583 23.3333 27.5563 23.2104 27.7761 22.9916C27.9958 22.7728 28.1192 22.4761 28.1192 22.1667V1.16667C28.1192 0.857247 27.9958 0.560501 27.7761 0.341709C27.5563 0.122916 27.2583 0 26.9476 0ZM21.5802 14.9494L19.9178 13.7667V18.6667C19.9178 18.9761 19.7943 19.2728 19.5746 19.4916C19.3549 19.7104 19.0569 19.8333 18.7461 19.8333H15.8171V15.1667C15.8171 14.8572 15.6936 14.5605 15.4739 14.3417C15.2542 14.1229 14.9562 14 14.6454 14H13.4738C13.1631 14 12.865 14.1229 12.6453 14.3417C12.4256 14.5605 12.3022 14.8572 12.3022 15.1667V19.8333H9.37307C9.06234 19.8333 8.76433 19.7104 8.5446 19.4916C8.32488 19.2728 8.20144 18.9761 8.20144 18.6667V13.7667L6.53918 14.9494L5.17716 13.0506L13.3786 7.21729C13.5781 7.07799 13.8159 7.00325 14.0596 7.00325C14.3033 7.00325 14.5411 7.07799 14.7406 7.21729L22.9421 13.0506L21.5802 14.9494Z" fill="#FEFEFE"/>
</svg>
